<mxfile host="app.diagrams.net" agent="Mozilla/5.0 (Windows NT 10.0; Win64; x64) AppleWebKit/537.36 (KHTML, like Gecko) Chrome/127.0.0.0 Safari/537.36 Edg/127.0.0.0" version="24.7.6">
  <diagram name="Page-1" id="h7Oh3EGUh3cBh1QtTX6X">
    <mxGraphModel dx="2100" dy="1222" grid="1" gridSize="10" guides="1" tooltips="1" connect="1" arrows="1" fold="1" page="1" pageScale="1" pageWidth="1169" pageHeight="1654" math="0" shadow="0">
      <root>
        <mxCell id="0" />
        <mxCell id="1" parent="0" />
        <mxCell id="zowKYsmVcmLUm09wKHbU-10" value="" style="edgeStyle=orthogonalEdgeStyle;rounded=0;orthogonalLoop=1;jettySize=auto;html=1;" edge="1" parent="1" source="zowKYsmVcmLUm09wKHbU-1" target="zowKYsmVcmLUm09wKHbU-3">
          <mxGeometry relative="1" as="geometry" />
        </mxCell>
        <mxCell id="zowKYsmVcmLUm09wKHbU-1" value="&lt;font style=&quot;font-size: 16px;&quot;&gt;Page&lt;/font&gt;&lt;div style=&quot;font-size: 16px;&quot;&gt;&lt;font style=&quot;font-size: 16px;&quot;&gt;2&lt;/font&gt;&lt;/div&gt;" style="verticalLabelPosition=middle;verticalAlign=middle;html=1;shape=offPageConnector;rounded=0;size=0.5;labelPosition=center;align=center;" vertex="1" parent="1">
          <mxGeometry x="50" y="40" width="60" height="60" as="geometry" />
        </mxCell>
        <mxCell id="zowKYsmVcmLUm09wKHbU-2" style="edgeStyle=orthogonalEdgeStyle;rounded=0;orthogonalLoop=1;jettySize=auto;html=1;exitX=1;exitY=0.5;exitDx=0;exitDy=0;exitPerimeter=0;entryX=0;entryY=0.5;entryDx=0;entryDy=0;" edge="1" parent="1" source="zowKYsmVcmLUm09wKHbU-3" target="zowKYsmVcmLUm09wKHbU-8">
          <mxGeometry relative="1" as="geometry" />
        </mxCell>
        <mxCell id="zowKYsmVcmLUm09wKHbU-3" value="Schedule?" style="strokeWidth=2;html=1;shape=mxgraph.flowchart.decision;whiteSpace=wrap;" vertex="1" parent="1">
          <mxGeometry x="30" y="130" width="100" height="100" as="geometry" />
        </mxCell>
        <mxCell id="zowKYsmVcmLUm09wKHbU-4" style="edgeStyle=orthogonalEdgeStyle;rounded=0;orthogonalLoop=1;jettySize=auto;html=1;exitX=1;exitY=0.5;exitDx=0;exitDy=0;exitPerimeter=0;entryX=0;entryY=0.5;entryDx=0;entryDy=0;" edge="1" parent="1" source="zowKYsmVcmLUm09wKHbU-5" target="zowKYsmVcmLUm09wKHbU-9">
          <mxGeometry relative="1" as="geometry" />
        </mxCell>
        <mxCell id="zowKYsmVcmLUm09wKHbU-26" value="" style="edgeStyle=orthogonalEdgeStyle;rounded=0;orthogonalLoop=1;jettySize=auto;html=1;" edge="1" parent="1" source="zowKYsmVcmLUm09wKHbU-5" target="zowKYsmVcmLUm09wKHbU-25">
          <mxGeometry relative="1" as="geometry" />
        </mxCell>
        <mxCell id="zowKYsmVcmLUm09wKHbU-5" value="Events?" style="strokeWidth=2;html=1;shape=mxgraph.flowchart.decision;whiteSpace=wrap;" vertex="1" parent="1">
          <mxGeometry x="30" y="257" width="100" height="100" as="geometry" />
        </mxCell>
        <mxCell id="zowKYsmVcmLUm09wKHbU-6" style="edgeStyle=orthogonalEdgeStyle;rounded=0;orthogonalLoop=1;jettySize=auto;html=1;exitX=0.5;exitY=1;exitDx=0;exitDy=0;exitPerimeter=0;entryX=0.5;entryY=0;entryDx=0;entryDy=0;entryPerimeter=0;" edge="1" parent="1" source="zowKYsmVcmLUm09wKHbU-3" target="zowKYsmVcmLUm09wKHbU-5">
          <mxGeometry relative="1" as="geometry" />
        </mxCell>
        <mxCell id="zowKYsmVcmLUm09wKHbU-7" value="No" style="text;html=1;align=center;verticalAlign=middle;resizable=0;points=[];autosize=1;strokeColor=none;fillColor=none;" vertex="1" parent="1">
          <mxGeometry x="80" y="224" width="40" height="30" as="geometry" />
        </mxCell>
        <mxCell id="zowKYsmVcmLUm09wKHbU-14" value="" style="edgeStyle=orthogonalEdgeStyle;rounded=0;orthogonalLoop=1;jettySize=auto;html=1;" edge="1" parent="1" source="zowKYsmVcmLUm09wKHbU-8" target="zowKYsmVcmLUm09wKHbU-13">
          <mxGeometry relative="1" as="geometry" />
        </mxCell>
        <mxCell id="zowKYsmVcmLUm09wKHbU-8" value="Menampilkan&amp;nbsp;&lt;div&gt;Jadwal dan tempat&lt;div&gt;Syntax&lt;/div&gt;&lt;/div&gt;" style="shape=parallelogram;html=1;strokeWidth=2;perimeter=parallelogramPerimeter;whiteSpace=wrap;rounded=1;arcSize=12;size=0.23;" vertex="1" parent="1">
          <mxGeometry x="155" y="150" width="170" height="60" as="geometry" />
        </mxCell>
        <mxCell id="zowKYsmVcmLUm09wKHbU-16" value="" style="edgeStyle=orthogonalEdgeStyle;rounded=0;orthogonalLoop=1;jettySize=auto;html=1;" edge="1" parent="1" source="zowKYsmVcmLUm09wKHbU-9" target="zowKYsmVcmLUm09wKHbU-15">
          <mxGeometry relative="1" as="geometry" />
        </mxCell>
        <mxCell id="zowKYsmVcmLUm09wKHbU-9" value="Menampilkan&amp;nbsp;&lt;div&gt;Jadwal Events&lt;div&gt;Syntax&lt;/div&gt;&lt;/div&gt;" style="shape=parallelogram;html=1;strokeWidth=2;perimeter=parallelogramPerimeter;whiteSpace=wrap;rounded=1;arcSize=12;size=0.23;" vertex="1" parent="1">
          <mxGeometry x="155" y="277" width="170" height="60" as="geometry" />
        </mxCell>
        <mxCell id="zowKYsmVcmLUm09wKHbU-11" value="Yes" style="text;html=1;align=center;verticalAlign=middle;resizable=0;points=[];autosize=1;strokeColor=none;fillColor=none;" vertex="1" parent="1">
          <mxGeometry x="130" y="150" width="40" height="30" as="geometry" />
        </mxCell>
        <mxCell id="zowKYsmVcmLUm09wKHbU-12" value="Yes" style="text;html=1;align=center;verticalAlign=middle;resizable=0;points=[];autosize=1;strokeColor=none;fillColor=none;" vertex="1" parent="1">
          <mxGeometry x="130" y="278" width="40" height="30" as="geometry" />
        </mxCell>
        <mxCell id="zowKYsmVcmLUm09wKHbU-56" value="" style="edgeStyle=orthogonalEdgeStyle;rounded=0;orthogonalLoop=1;jettySize=auto;html=1;" edge="1" parent="1" source="zowKYsmVcmLUm09wKHbU-13" target="zowKYsmVcmLUm09wKHbU-55">
          <mxGeometry relative="1" as="geometry" />
        </mxCell>
        <mxCell id="zowKYsmVcmLUm09wKHbU-13" value="&lt;div style=&quot;text-align: justify;&quot;&gt;&lt;span style=&quot;background-color: initial;&quot;&gt;1. Add Schedule&lt;/span&gt;&lt;/div&gt;&lt;div style=&quot;text-align: justify;&quot;&gt;2. Edit Schedule&lt;/div&gt;&lt;div style=&quot;text-align: justify;&quot;&gt;3. Delete Schedule&lt;/div&gt;" style="rounded=1;whiteSpace=wrap;html=1;absoluteArcSize=1;arcSize=14;strokeWidth=2;align=center;" vertex="1" parent="1">
          <mxGeometry x="363" y="130" width="127" height="100" as="geometry" />
        </mxCell>
        <mxCell id="zowKYsmVcmLUm09wKHbU-61" value="" style="edgeStyle=orthogonalEdgeStyle;rounded=0;orthogonalLoop=1;jettySize=auto;html=1;" edge="1" parent="1" source="zowKYsmVcmLUm09wKHbU-15" target="zowKYsmVcmLUm09wKHbU-57">
          <mxGeometry relative="1" as="geometry" />
        </mxCell>
        <mxCell id="zowKYsmVcmLUm09wKHbU-15" value="&lt;div style=&quot;text-align: justify;&quot;&gt;&lt;span style=&quot;background-color: initial;&quot;&gt;1. Add Events&lt;/span&gt;&lt;/div&gt;&lt;div style=&quot;text-align: justify;&quot;&gt;2. Edit Events&lt;/div&gt;&lt;div style=&quot;text-align: justify;&quot;&gt;3. Delete Events&lt;/div&gt;" style="rounded=1;whiteSpace=wrap;html=1;absoluteArcSize=1;arcSize=14;strokeWidth=2;align=center;" vertex="1" parent="1">
          <mxGeometry x="363" y="257" width="127" height="100" as="geometry" />
        </mxCell>
        <mxCell id="zowKYsmVcmLUm09wKHbU-22" value="" style="edgeStyle=orthogonalEdgeStyle;rounded=0;orthogonalLoop=1;jettySize=auto;html=1;" edge="1" parent="1" source="zowKYsmVcmLUm09wKHbU-19" target="zowKYsmVcmLUm09wKHbU-21">
          <mxGeometry relative="1" as="geometry" />
        </mxCell>
        <mxCell id="zowKYsmVcmLUm09wKHbU-19" value="Menampilkan&lt;div&gt;Data Pemasukan dan&lt;/div&gt;&lt;div&gt;Pengeluaran Kas&lt;/div&gt;" style="shape=parallelogram;html=1;strokeWidth=2;perimeter=parallelogramPerimeter;whiteSpace=wrap;rounded=1;arcSize=12;size=0.23;" vertex="1" parent="1">
          <mxGeometry x="155" y="403" width="170" height="60" as="geometry" />
        </mxCell>
        <mxCell id="zowKYsmVcmLUm09wKHbU-62" value="" style="edgeStyle=orthogonalEdgeStyle;rounded=0;orthogonalLoop=1;jettySize=auto;html=1;" edge="1" parent="1" source="zowKYsmVcmLUm09wKHbU-21" target="zowKYsmVcmLUm09wKHbU-58">
          <mxGeometry relative="1" as="geometry" />
        </mxCell>
        <mxCell id="zowKYsmVcmLUm09wKHbU-21" value="&lt;div style=&quot;text-align: justify;&quot;&gt;&lt;span style=&quot;background-color: initial;&quot;&gt;1. Add Cash Log&lt;/span&gt;&lt;/div&gt;&lt;div style=&quot;text-align: justify;&quot;&gt;2. Edit Cash Log&lt;/div&gt;&lt;div style=&quot;text-align: justify;&quot;&gt;3. Delete Cash Log&lt;/div&gt;" style="rounded=1;whiteSpace=wrap;html=1;absoluteArcSize=1;arcSize=14;strokeWidth=2;align=center;" vertex="1" parent="1">
          <mxGeometry x="363" y="383" width="127" height="100" as="geometry" />
        </mxCell>
        <mxCell id="zowKYsmVcmLUm09wKHbU-24" value="Yes" style="text;html=1;align=center;verticalAlign=middle;resizable=0;points=[];autosize=1;strokeColor=none;fillColor=none;" vertex="1" parent="1">
          <mxGeometry x="130" y="403" width="40" height="30" as="geometry" />
        </mxCell>
        <mxCell id="zowKYsmVcmLUm09wKHbU-27" value="" style="edgeStyle=orthogonalEdgeStyle;rounded=0;orthogonalLoop=1;jettySize=auto;html=1;" edge="1" parent="1" source="zowKYsmVcmLUm09wKHbU-25" target="zowKYsmVcmLUm09wKHbU-19">
          <mxGeometry relative="1" as="geometry" />
        </mxCell>
        <mxCell id="zowKYsmVcmLUm09wKHbU-33" value="" style="edgeStyle=orthogonalEdgeStyle;rounded=0;orthogonalLoop=1;jettySize=auto;html=1;" edge="1" parent="1" source="zowKYsmVcmLUm09wKHbU-25" target="zowKYsmVcmLUm09wKHbU-29">
          <mxGeometry relative="1" as="geometry" />
        </mxCell>
        <mxCell id="zowKYsmVcmLUm09wKHbU-25" value="Cash&lt;div&gt;Manage?&lt;/div&gt;" style="strokeWidth=2;html=1;shape=mxgraph.flowchart.decision;whiteSpace=wrap;" vertex="1" parent="1">
          <mxGeometry x="30" y="383" width="100" height="100" as="geometry" />
        </mxCell>
        <mxCell id="zowKYsmVcmLUm09wKHbU-28" value="No" style="text;html=1;align=center;verticalAlign=middle;resizable=0;points=[];autosize=1;strokeColor=none;fillColor=none;" vertex="1" parent="1">
          <mxGeometry x="80" y="353" width="40" height="30" as="geometry" />
        </mxCell>
        <mxCell id="zowKYsmVcmLUm09wKHbU-31" value="" style="edgeStyle=orthogonalEdgeStyle;rounded=0;orthogonalLoop=1;jettySize=auto;html=1;" edge="1" parent="1" source="zowKYsmVcmLUm09wKHbU-29" target="zowKYsmVcmLUm09wKHbU-30">
          <mxGeometry relative="1" as="geometry" />
        </mxCell>
        <mxCell id="zowKYsmVcmLUm09wKHbU-46" value="" style="edgeStyle=orthogonalEdgeStyle;rounded=0;orthogonalLoop=1;jettySize=auto;html=1;" edge="1" parent="1" source="zowKYsmVcmLUm09wKHbU-29" target="zowKYsmVcmLUm09wKHbU-35">
          <mxGeometry relative="1" as="geometry" />
        </mxCell>
        <mxCell id="zowKYsmVcmLUm09wKHbU-29" value="Attendance?" style="strokeWidth=2;html=1;shape=mxgraph.flowchart.decision;whiteSpace=wrap;" vertex="1" parent="1">
          <mxGeometry x="30" y="508" width="100" height="100" as="geometry" />
        </mxCell>
        <mxCell id="zowKYsmVcmLUm09wKHbU-34" value="" style="edgeStyle=orthogonalEdgeStyle;rounded=0;orthogonalLoop=1;jettySize=auto;html=1;" edge="1" parent="1" source="zowKYsmVcmLUm09wKHbU-30" target="zowKYsmVcmLUm09wKHbU-32">
          <mxGeometry relative="1" as="geometry" />
        </mxCell>
        <mxCell id="zowKYsmVcmLUm09wKHbU-30" value="Menampilkan Data&lt;div&gt;&lt;span style=&quot;background-color: initial;&quot;&gt;Absensi Syntax&lt;/span&gt;&lt;/div&gt;" style="shape=parallelogram;html=1;strokeWidth=2;perimeter=parallelogramPerimeter;whiteSpace=wrap;rounded=1;arcSize=12;size=0.23;" vertex="1" parent="1">
          <mxGeometry x="155" y="528" width="170" height="60" as="geometry" />
        </mxCell>
        <mxCell id="zowKYsmVcmLUm09wKHbU-63" value="" style="edgeStyle=orthogonalEdgeStyle;rounded=0;orthogonalLoop=1;jettySize=auto;html=1;" edge="1" parent="1" source="zowKYsmVcmLUm09wKHbU-32" target="zowKYsmVcmLUm09wKHbU-60">
          <mxGeometry relative="1" as="geometry" />
        </mxCell>
        <mxCell id="zowKYsmVcmLUm09wKHbU-32" value="&lt;div style=&quot;text-align: justify;&quot;&gt;&lt;span style=&quot;background-color: initial;&quot;&gt;1. Add Token&lt;/span&gt;&lt;/div&gt;&lt;div style=&quot;text-align: justify;&quot;&gt;2. Edit Attendance&lt;/div&gt;&lt;div style=&quot;text-align: justify;&quot;&gt;3. Delete Attendance&lt;/div&gt;" style="rounded=1;whiteSpace=wrap;html=1;absoluteArcSize=1;arcSize=14;strokeWidth=2;align=center;" vertex="1" parent="1">
          <mxGeometry x="363" y="508" width="127" height="100" as="geometry" />
        </mxCell>
        <mxCell id="zowKYsmVcmLUm09wKHbU-47" value="" style="edgeStyle=orthogonalEdgeStyle;rounded=0;orthogonalLoop=1;jettySize=auto;html=1;" edge="1" parent="1" source="zowKYsmVcmLUm09wKHbU-35" target="zowKYsmVcmLUm09wKHbU-36">
          <mxGeometry relative="1" as="geometry" />
        </mxCell>
        <mxCell id="zowKYsmVcmLUm09wKHbU-35" value="Profile?" style="strokeWidth=2;html=1;shape=mxgraph.flowchart.decision;whiteSpace=wrap;" vertex="1" parent="1">
          <mxGeometry x="30" y="640" width="100" height="100" as="geometry" />
        </mxCell>
        <mxCell id="zowKYsmVcmLUm09wKHbU-48" value="" style="edgeStyle=orthogonalEdgeStyle;rounded=0;orthogonalLoop=1;jettySize=auto;html=1;" edge="1" parent="1" source="zowKYsmVcmLUm09wKHbU-36" target="zowKYsmVcmLUm09wKHbU-37">
          <mxGeometry relative="1" as="geometry" />
        </mxCell>
        <mxCell id="zowKYsmVcmLUm09wKHbU-36" value="Menampilkan&amp;nbsp;&lt;div&gt;Data Profile Akun&lt;/div&gt;" style="shape=parallelogram;html=1;strokeWidth=2;perimeter=parallelogramPerimeter;whiteSpace=wrap;rounded=1;arcSize=12;size=0.23;" vertex="1" parent="1">
          <mxGeometry x="155" y="660" width="170" height="60" as="geometry" />
        </mxCell>
        <mxCell id="zowKYsmVcmLUm09wKHbU-64" value="" style="edgeStyle=orthogonalEdgeStyle;rounded=0;orthogonalLoop=1;jettySize=auto;html=1;" edge="1" parent="1" source="zowKYsmVcmLUm09wKHbU-37" target="zowKYsmVcmLUm09wKHbU-38">
          <mxGeometry relative="1" as="geometry" />
        </mxCell>
        <mxCell id="zowKYsmVcmLUm09wKHbU-37" value="&lt;div style=&quot;text-align: justify;&quot;&gt;&lt;span style=&quot;background-color: initial;&quot;&gt;1. Attendance&lt;/span&gt;&lt;/div&gt;&lt;div style=&quot;text-align: justify;&quot;&gt;2. E-Certificate&lt;/div&gt;&lt;div style=&quot;text-align: justify;&quot;&gt;3. Logout&lt;/div&gt;" style="rounded=1;whiteSpace=wrap;html=1;absoluteArcSize=1;arcSize=14;strokeWidth=2;" vertex="1" parent="1">
          <mxGeometry x="362" y="640" width="100" height="100" as="geometry" />
        </mxCell>
        <mxCell id="zowKYsmVcmLUm09wKHbU-50" value="" style="edgeStyle=orthogonalEdgeStyle;rounded=0;orthogonalLoop=1;jettySize=auto;html=1;" edge="1" parent="1" source="zowKYsmVcmLUm09wKHbU-38" target="zowKYsmVcmLUm09wKHbU-40">
          <mxGeometry relative="1" as="geometry" />
        </mxCell>
        <mxCell id="zowKYsmVcmLUm09wKHbU-66" value="" style="edgeStyle=orthogonalEdgeStyle;rounded=0;orthogonalLoop=1;jettySize=auto;html=1;" edge="1" parent="1" source="zowKYsmVcmLUm09wKHbU-38" target="zowKYsmVcmLUm09wKHbU-41">
          <mxGeometry relative="1" as="geometry" />
        </mxCell>
        <mxCell id="zowKYsmVcmLUm09wKHbU-38" value="Attendance?" style="strokeWidth=2;html=1;shape=mxgraph.flowchart.decision;whiteSpace=wrap;" vertex="1" parent="1">
          <mxGeometry x="696" y="640" width="100" height="100" as="geometry" />
        </mxCell>
        <mxCell id="zowKYsmVcmLUm09wKHbU-77" style="edgeStyle=orthogonalEdgeStyle;rounded=0;orthogonalLoop=1;jettySize=auto;html=1;exitX=1;exitY=0.5;exitDx=0;exitDy=0;entryX=0.5;entryY=1;entryDx=0;entryDy=0;" edge="1" parent="1" source="zowKYsmVcmLUm09wKHbU-40" target="zowKYsmVcmLUm09wKHbU-37">
          <mxGeometry relative="1" as="geometry">
            <mxPoint x="410" y="780" as="targetPoint" />
            <Array as="points">
              <mxPoint x="1020" y="690" />
              <mxPoint x="1020" y="790" />
              <mxPoint x="412" y="790" />
            </Array>
          </mxGeometry>
        </mxCell>
        <mxCell id="zowKYsmVcmLUm09wKHbU-40" value="Menampilkan&lt;div&gt;Page Absensi&lt;/div&gt;" style="shape=parallelogram;html=1;strokeWidth=2;perimeter=parallelogramPerimeter;whiteSpace=wrap;rounded=1;arcSize=12;size=0.23;" vertex="1" parent="1">
          <mxGeometry x="828" y="660" width="148" height="60" as="geometry" />
        </mxCell>
        <mxCell id="zowKYsmVcmLUm09wKHbU-52" value="" style="edgeStyle=orthogonalEdgeStyle;rounded=0;orthogonalLoop=1;jettySize=auto;html=1;" edge="1" parent="1" source="zowKYsmVcmLUm09wKHbU-41" target="zowKYsmVcmLUm09wKHbU-43">
          <mxGeometry relative="1" as="geometry" />
        </mxCell>
        <mxCell id="zowKYsmVcmLUm09wKHbU-69" value="" style="edgeStyle=orthogonalEdgeStyle;rounded=0;orthogonalLoop=1;jettySize=auto;html=1;" edge="1" parent="1" source="zowKYsmVcmLUm09wKHbU-41" target="zowKYsmVcmLUm09wKHbU-44">
          <mxGeometry relative="1" as="geometry" />
        </mxCell>
        <mxCell id="zowKYsmVcmLUm09wKHbU-41" value="E-Certificate?" style="strokeWidth=2;html=1;shape=mxgraph.flowchart.decision;whiteSpace=wrap;" vertex="1" parent="1">
          <mxGeometry x="696" y="510" width="100" height="100" as="geometry" />
        </mxCell>
        <mxCell id="zowKYsmVcmLUm09wKHbU-76" style="edgeStyle=orthogonalEdgeStyle;rounded=0;orthogonalLoop=1;jettySize=auto;html=1;exitX=1;exitY=0.5;exitDx=0;exitDy=0;" edge="1" parent="1" source="zowKYsmVcmLUm09wKHbU-43">
          <mxGeometry relative="1" as="geometry">
            <mxPoint x="1020" y="690" as="targetPoint" />
          </mxGeometry>
        </mxCell>
        <mxCell id="zowKYsmVcmLUm09wKHbU-43" value="Menampilkan&lt;div&gt;Page E-Sertifikat&lt;/div&gt;" style="shape=parallelogram;html=1;strokeWidth=2;perimeter=parallelogramPerimeter;whiteSpace=wrap;rounded=1;arcSize=12;size=0.23;" vertex="1" parent="1">
          <mxGeometry x="838" y="530" width="148" height="60" as="geometry" />
        </mxCell>
        <mxCell id="zowKYsmVcmLUm09wKHbU-54" value="" style="edgeStyle=orthogonalEdgeStyle;rounded=0;orthogonalLoop=1;jettySize=auto;html=1;" edge="1" parent="1" source="zowKYsmVcmLUm09wKHbU-44" target="zowKYsmVcmLUm09wKHbU-45">
          <mxGeometry relative="1" as="geometry" />
        </mxCell>
        <mxCell id="zowKYsmVcmLUm09wKHbU-74" style="edgeStyle=orthogonalEdgeStyle;rounded=0;orthogonalLoop=1;jettySize=auto;html=1;exitX=0.5;exitY=0;exitDx=0;exitDy=0;exitPerimeter=0;entryX=1;entryY=0.25;entryDx=0;entryDy=0;" edge="1" parent="1" source="zowKYsmVcmLUm09wKHbU-44" target="zowKYsmVcmLUm09wKHbU-1">
          <mxGeometry relative="1" as="geometry">
            <mxPoint x="746.6666666666665" y="70" as="targetPoint" />
          </mxGeometry>
        </mxCell>
        <mxCell id="zowKYsmVcmLUm09wKHbU-44" value="Logout?" style="strokeWidth=2;html=1;shape=mxgraph.flowchart.decision;whiteSpace=wrap;" vertex="1" parent="1">
          <mxGeometry x="696" y="378" width="100" height="100" as="geometry" />
        </mxCell>
        <mxCell id="zowKYsmVcmLUm09wKHbU-45" value="&lt;font style=&quot;font-size: 12px;&quot;&gt;Page&lt;/font&gt;&lt;div style=&quot;&quot;&gt;&lt;font style=&quot;font-size: 12px;&quot;&gt;Logout&lt;/font&gt;&lt;/div&gt;" style="verticalLabelPosition=middle;verticalAlign=middle;html=1;shape=offPageConnector;rounded=0;size=0.5;labelPosition=center;align=center;" vertex="1" parent="1">
          <mxGeometry x="838" y="398" width="60" height="60" as="geometry" />
        </mxCell>
        <mxCell id="zowKYsmVcmLUm09wKHbU-55" value="&lt;font style=&quot;font-size: 16px;&quot;&gt;A&lt;/font&gt;" style="ellipse;whiteSpace=wrap;html=1;rounded=1;arcSize=14;strokeWidth=2;" vertex="1" parent="1">
          <mxGeometry x="552" y="140" width="80" height="80" as="geometry" />
        </mxCell>
        <mxCell id="zowKYsmVcmLUm09wKHbU-57" value="&lt;font style=&quot;font-size: 16px;&quot;&gt;B&lt;/font&gt;&lt;span style=&quot;color: rgba(0, 0, 0, 0); font-family: monospace; font-size: 0px; text-align: start; text-wrap: nowrap;&quot;&gt;%3CmxGraphModel%3E%3Croot%3E%3CmxCell%20id%3D%220%22%2F%3E%3CmxCell%20id%3D%221%22%20parent%3D%220%22%2F%3E%3CmxCell%20id%3D%222%22%20value%3D%22%26lt%3Bfont%20style%3D%26quot%3Bfont-size%3A%2016px%3B%26quot%3B%26gt%3BA%26lt%3B%2Ffont%26gt%3B%22%20style%3D%22ellipse%3BwhiteSpace%3Dwrap%3Bhtml%3D1%3Brounded%3D1%3BarcSize%3D14%3BstrokeWidth%3D2%3B%22%20vertex%3D%221%22%20parent%3D%221%22%3E%3CmxGeometry%20x%3D%22552%22%20y%3D%22140%22%20width%3D%2280%22%20height%3D%2280%22%20as%3D%22geometry%22%2F%3E%3C%2FmxCell%3E%3C%2Froot%3E%3C%2FmxGraphModel%3E&lt;/span&gt;" style="ellipse;whiteSpace=wrap;html=1;rounded=1;arcSize=14;strokeWidth=2;" vertex="1" parent="1">
          <mxGeometry x="545" y="267" width="80" height="80" as="geometry" />
        </mxCell>
        <mxCell id="zowKYsmVcmLUm09wKHbU-58" value="&lt;font style=&quot;font-size: 16px;&quot;&gt;C&lt;/font&gt;" style="ellipse;whiteSpace=wrap;html=1;rounded=1;arcSize=14;strokeWidth=2;" vertex="1" parent="1">
          <mxGeometry x="545" y="393" width="80" height="80" as="geometry" />
        </mxCell>
        <mxCell id="zowKYsmVcmLUm09wKHbU-60" value="&lt;span style=&quot;font-size: 16px;&quot;&gt;D&lt;/span&gt;" style="ellipse;whiteSpace=wrap;html=1;rounded=1;arcSize=14;strokeWidth=2;" vertex="1" parent="1">
          <mxGeometry x="545" y="518" width="80" height="80" as="geometry" />
        </mxCell>
        <mxCell id="zowKYsmVcmLUm09wKHbU-65" value="Yes" style="text;html=1;align=center;verticalAlign=middle;resizable=0;points=[];autosize=1;strokeColor=none;fillColor=none;" vertex="1" parent="1">
          <mxGeometry x="798" y="658" width="40" height="30" as="geometry" />
        </mxCell>
        <mxCell id="zowKYsmVcmLUm09wKHbU-67" value="Yes" style="text;html=1;align=center;verticalAlign=middle;resizable=0;points=[];autosize=1;strokeColor=none;fillColor=none;" vertex="1" parent="1">
          <mxGeometry x="802" y="528" width="40" height="30" as="geometry" />
        </mxCell>
        <mxCell id="zowKYsmVcmLUm09wKHbU-68" value="No" style="text;html=1;align=center;verticalAlign=middle;resizable=0;points=[];autosize=1;strokeColor=none;fillColor=none;" vertex="1" parent="1">
          <mxGeometry x="746" y="620" width="40" height="30" as="geometry" />
        </mxCell>
        <mxCell id="zowKYsmVcmLUm09wKHbU-70" value="No" style="text;html=1;align=center;verticalAlign=middle;resizable=0;points=[];autosize=1;strokeColor=none;fillColor=none;" vertex="1" parent="1">
          <mxGeometry x="746" y="483" width="40" height="30" as="geometry" />
        </mxCell>
        <mxCell id="zowKYsmVcmLUm09wKHbU-71" value="Yes" style="text;html=1;align=center;verticalAlign=middle;resizable=0;points=[];autosize=1;strokeColor=none;fillColor=none;" vertex="1" parent="1">
          <mxGeometry x="794" y="398" width="40" height="30" as="geometry" />
        </mxCell>
        <mxCell id="zowKYsmVcmLUm09wKHbU-75" value="No" style="text;html=1;align=center;verticalAlign=middle;resizable=0;points=[];autosize=1;strokeColor=none;fillColor=none;" vertex="1" parent="1">
          <mxGeometry x="746" y="353" width="40" height="30" as="geometry" />
        </mxCell>
      </root>
    </mxGraphModel>
  </diagram>
</mxfile>
